# Blender v2.79 (sub 0) OBJ File: ''
# www.blender.org
mtllib charaSelectScreen.mtl
o charaSelectOne.001
v 0.240699 0.012039 -2.517052
v 0.240699 0.012039 2.517052
v 0.240699 2.843723 -2.517052
v 0.240699 2.843723 2.517052
v 0.251081 0.012039 2.517052
v 0.251081 0.012039 -2.517052
v 0.251081 2.843723 2.517052
v 0.251081 2.843723 -2.517052
vt 0.000000 0.000000
vt 1.000000 0.000000
vt 1.000000 1.000000
vt 0.000000 1.000000
vt 0.000000 0.000000
vt 1.000000 0.000000
vt 1.000000 1.000000
vt 0.000000 1.000000
vn -1.0000 -0.0000 0.0000
vn 1.0000 -0.0000 -0.0000
usemtl charaSelectOne
s off
f 1/1/1 2/2/1 4/3/1 3/4/1
f 5/5/2 6/6/2 8/7/2 7/8/2
